<svg width="293" height="188" viewBox="0 0 293 188" fill="none" xmlns="http://www.w3.org/2000/svg">
<path d="M101.191 68.2158C116.991 64.037 140.259 62.0345 153.273 61.1904C155.443 61.0496 155.936 57.9462 153.907 57.1658L126.511 46.6331L93.5761 38.1484C93.2002 38.0516 92.8042 38.0662 92.4365 38.1905L71.0132 45.4344C70.7795 45.5134 70.5624 45.635 70.3729 45.793L31.4077 78.2874C31.2643 78.4069 31.1383 78.546 31.0335 78.7006L-11.6551 141.628C-11.8799 141.96 -12 142.351 -12 142.751V177.506C-12 179.713 -8.70044 180.413 -7.761 178.417C4.26341 152.863 41.6246 83.9706 101.191 68.2158Z" fill="url(#paint0_linear_1122_1556)"/>
<path d="M208.437 63.2203C259.207 58.7549 285.588 14.3308 291.637 2.74927C292.308 1.46297 291.359 0 289.907 0H-2C-3.10458 0 -4 0.895427 -4 2V138.495C-4 140.607 -1.04987 141.333 -0.0418091 139.477C13.7162 114.142 60.9276 33.9921 103.25 42.6608C153.438 52.9406 150 68.3601 208.437 63.2203Z" fill="url(#paint1_linear_1122_1556)"/>
<defs>
<linearGradient id="paint0_linear_1122_1556" x1="75.5" y1="38" x2="75.5" y2="188" gradientUnits="userSpaceOnUse">
<stop stop-color="#FFB22C"/>
<stop offset="1" stop-color="#996B1A"/>
</linearGradient>
<linearGradient id="paint1_linear_1122_1556" x1="144.5" y1="0" x2="144.5" y2="147" gradientUnits="userSpaceOnUse">
<stop stop-color="#854836"/>
<stop offset="1" stop-color="#1F110D"/>
</linearGradient>
</defs>
</svg>
